<svg width="20.362793" height="20.363632" viewBox="0 0 20.3628 20.3636" fill="none" xmlns="http://www.w3.org/2000/svg" xmlns:xlink="http://www.w3.org/1999/xlink">
	<desc>
			Created with Pixso.
	</desc>
	<defs/>
	<path id="Vector" d="M10.1824 0C7.41724 0 7.07019 0.0120926 5.98413 0.0615158C4.90027 0.111153 4.1604 0.282757 3.51306 0.534546C2.84338 0.794605 2.27539 1.14249 1.70947 1.70864C1.14307 2.27457 0.795166 2.84264 0.534302 3.51209C0.28186 4.15969 0.110107 4.89979 0.0612793 5.9833C0.0126953 7.06936 0 7.41661 0 10.1818C0 12.947 0.0123291 13.293 0.0615234 14.3791C0.111328 15.463 0.282959 16.2029 0.534546 16.8503C0.7948 17.5199 1.1427 18.088 1.70874 18.6539C2.27454 19.2203 2.84253 19.569 3.51172 19.8291C4.15955 20.0809 4.89966 20.2525 5.98328 20.3021C7.06934 20.3515 7.41614 20.3636 10.181 20.3636C12.9464 20.3636 13.2924 20.3515 14.3784 20.3021C15.4623 20.2525 16.203 20.0809 16.8508 19.8291C17.5203 19.569 18.0874 19.2203 18.6532 18.6539C19.2195 18.088 19.5674 17.5199 19.8282 16.8505C20.0786 16.2029 20.2504 15.4628 20.3013 14.3793C20.3501 13.2932 20.3628 12.947 20.3628 10.1818C20.3628 7.41661 20.3501 7.06958 20.3013 5.98351C20.2504 4.89957 20.0786 4.15969 19.8282 3.5123C19.5674 2.84264 19.2195 2.27457 18.6532 1.70864C18.0868 1.14227 17.5205 0.794395 16.8502 0.534546C16.2012 0.282757 15.4608 0.111153 14.377 0.0615158C13.2909 0.0120926 12.9452 0 10.1792 0L10.1824 0ZM9.26904 1.83485C9.54004 1.83442 9.84253 1.83485 10.1824 1.83485C12.9009 1.83485 13.223 1.8446 14.2965 1.89339C15.2892 1.93879 15.828 2.10467 16.1869 2.24403C16.662 2.42857 17.0007 2.64918 17.3569 3.00555C17.7133 3.36191 17.9338 3.7013 18.1189 4.17645C18.2582 4.53494 18.4243 5.07373 18.4695 6.06645C18.5183 7.13979 18.5288 7.46221 18.5288 10.1795C18.5288 12.8968 18.5183 13.2192 18.4695 14.2925C18.4241 15.2852 18.2582 15.824 18.1189 16.1825C17.9343 16.6577 17.7133 16.996 17.3569 17.3521C17.0006 17.7085 16.6622 17.9291 16.1869 18.1137C15.8284 18.2537 15.2892 18.4191 14.2965 18.4645C13.2233 18.5133 12.9009 18.5239 10.1824 18.5239C7.46362 18.5239 7.14148 18.5133 6.06824 18.4645C5.07544 18.4187 4.53674 18.2528 4.17761 18.1134C3.70251 17.9289 3.36304 17.7083 3.00671 17.3519C2.65039 16.9956 2.42981 16.657 2.24475 16.1817C2.10547 15.8232 1.93933 15.2844 1.89417 14.2917C1.84546 13.2183 1.83569 12.8959 1.83569 10.1769C1.83569 7.45797 1.84546 7.13724 1.89417 6.06391C1.93958 5.07118 2.10547 4.53239 2.24475 4.17348C2.42932 3.69833 2.65039 3.35894 3.00671 3.00257C3.36304 2.64621 3.70251 2.42561 4.17761 2.24063C4.5365 2.10064 5.07544 1.93518 6.06824 1.88958C7.00745 1.84715 7.37146 1.83442 9.26904 1.8323L9.26904 1.83485ZM15.6172 3.52546C14.9426 3.52546 14.3954 4.07209 14.3954 4.74685C14.3954 5.42139 14.9426 5.96867 15.6172 5.96867C16.2917 5.96867 16.839 5.42139 16.839 4.74685C16.839 4.0723 16.2917 3.52503 15.6172 3.52503L15.6172 3.52546ZM10.1824 4.95303C7.2948 4.95303 4.95374 7.29421 4.95374 10.1818C4.95374 13.0694 7.2948 15.4095 10.1824 15.4095C13.0698 15.4095 15.4102 13.0694 15.4102 10.1818C15.4102 7.29421 13.0697 4.95303 10.1821 4.95303L10.1824 4.95303ZM10.1824 6.78788C12.0566 6.78788 13.5762 8.3073 13.5762 10.1818C13.5762 12.0561 12.0566 13.5758 10.1824 13.5758C8.30786 13.5758 6.78857 12.0561 6.78857 10.1818C6.78857 8.3073 8.30786 6.78788 10.1824 6.78788Z" fill="#F3F3F3" fill-opacity="1.000000" fill-rule="nonzero"/>
</svg>
