<svg width="18.739624" height="15.293247" viewBox="0 0 18.7396 15.2932" fill="none" xmlns="http://www.w3.org/2000/svg" xmlns:xlink="http://www.w3.org/1999/xlink">
	<desc>
			Created with Pixso.
	</desc>
	<defs/>
	<path id="Vector" d="M18.7396 1.80489C18.0391 2.1179 17.2954 2.32244 16.5338 2.41155C17.3347 1.92908 17.9352 1.1722 18.2246 0.280243C17.4698 0.729477 16.6447 1.04684 15.7842 1.21884C15.2571 0.654713 14.5735 0.262646 13.822 0.0934601C13.0706 -0.0757256 12.2858 -0.0142326 11.5695 0.269974C10.8531 0.55418 10.2383 1.04799 9.80469 1.6874C9.37097 2.32682 9.13855 3.08235 9.13733 3.85608C9.13757 4.15184 9.17041 4.44667 9.23535 4.73515C7.70752 4.65798 6.21301 4.25876 4.84888 3.56343C3.48462 2.8681 2.28137 1.89222 1.31702 0.699181C0.975098 1.28846 0.795044 1.95838 0.795288 2.64048C0.795776 3.27471 0.951904 3.89902 1.25 4.45808C1.5481 5.01715 1.97888 5.49368 2.50427 5.84545C1.89417 5.82449 1.29761 5.65898 0.763306 5.36241L0.763306 5.41278C0.76062 6.30615 1.06641 7.17282 1.62866 7.86498C2.1908 8.55714 2.97461 9.03193 3.84631 9.20838C3.51575 9.2985 3.17493 9.34468 2.8324 9.34573C2.58923 9.34422 2.34668 9.32047 2.10779 9.27477C2.35376 10.0413 2.83179 10.7116 3.47522 11.1922C4.11853 11.6727 4.89514 11.9396 5.69666 11.9555C4.0835 13.2256 2.03516 13.8019 0 13.558C1.75732 14.6935 3.80322 15.296 5.89258 15.2932C12.9564 15.2932 16.8301 9.40983 16.8301 4.30477C16.8301 4.13536 16.8301 3.97054 16.8187 3.80342C17.5717 3.25999 18.2208 2.58452 18.735 1.80947L18.7396 1.80489Z" fill="#F3F3F3" fill-opacity="1.000000" fill-rule="evenodd"/>
</svg>
